<svg xmlns:dc="http://purl.org/dc/elements/1.1/" xmlns:cc="http://creativecommons.org/ns#" xmlns:rdf="http://www.w3.org/1999/02/22-rdf-syntax-ns#" xmlns:svg="http://www.w3.org/2000/svg" xmlns="http://www.w3.org/2000/svg" xmlns:sodipodi="http://sodipodi.sourceforge.net/DTD/sodipodi-0.dtd" xmlns:inkscape="http://www.inkscape.org/namespaces/inkscape" version="1.1" x="0px" y="0px" viewBox="0 0 100 125"><g transform="translate(0,-952.36218)"><path style="font-size:medium;font-style:normal;font-variant:normal;font-weight:normal;font-stretch:normal;text-indent:0;text-align:start;text-decoration:none;line-height:normal;letter-spacing:normal;word-spacing:normal;text-transform:none;direction:ltr;block-progression:tb;writing-mode:lr-tb;text-anchor:start;baseline-shift:baseline;opacity:1;color:#000000;fill:#000000;fill-opacity:1;stroke:none;stroke-width:6;marker:none;visibility:visible;display:inline;overflow:visible;enable-background:accumulate;font-family:Sans;-inkscape-font-specification:Sans" d="M 12.6875 10 A 3.0003 3.0003 0 0 0 10 13 L 10 87 A 3.0003 3.0003 0 0 0 13 90 L 87 90 A 3.0003 3.0003 0 0 0 90 87 L 90 13 A 3.0003 3.0003 0 0 0 87 10 L 13 10 A 3.0003 3.0003 0 0 0 12.6875 10 z M 16 16 L 84 16 L 84 84 L 16 84 L 16 16 z M 50 21 C 34.019278 21 21 34.01926 21 50 C 21 65.9807 34.019277 79 50 79 C 65.980723 79 79 65.9807 79 50 C 79 34.01926 65.980722 21 50 21 z M 50 27 C 62.738082 27 73 37.2619 73 50 C 73 62.7381 62.738081 73 50 73 C 37.261919 73 27 62.7381 27 50 C 27 37.2619 37.261918 27 50 27 z M 37 46 C 34.790864 46 33 47.7908 33 50 C 33 52.2091 34.790864 54 37 54 C 39.209137 54 41 52.2091 41 50 C 41 47.7908 39.209137 46 37 46 z M 63 46 C 60.790863 46 59 47.7908 59 50 C 59 52.2091 60.790863 54 63 54 C 65.209136 54 67 52.2091 67 50 C 67 47.7908 65.209136 46 63 46 z " transform="translate(0,952.36218)"/></g><text x="0" y="115" fill="#000000" font-size="5px" font-weight="bold" font-family="'Helvetica Neue', Helvetica, Arial-Unicode, Arial, Sans-serif">Created by emma mitchell</text><text x="0" y="120" fill="#000000" font-size="5px" font-weight="bold" font-family="'Helvetica Neue', Helvetica, Arial-Unicode, Arial, Sans-serif">from the Noun Project</text></svg>