<svg xmlns="http://www.w3.org/2000/svg"
     version="1.1" x="0px" y="0px"
     viewBox="0 0 100 100"
     style="enable-background:new 0 0 100 100;"
     xml:space="preserve">
        <g>
            <g>
                <path d="M25.2,17.6C31.8,11,40.6,7.3,50,7.3c9.4,0,18.2,3.7,24.8,10.3c0.5,0.5,1.1,0.7,1.7,0.7s1.2-0.2,1.7-0.7     c0.9-0.9,0.9-2.5,0-3.4C70.7,6.7,60.7,2.5,50,2.5c-10.7,0-20.7,4.2-28.2,11.7c-0.9,0.9-0.9,2.5,0,3.4     C22.7,18.5,24.2,18.5,25.2,17.6z"/>
                <path d="M68.1,26.8c0.6,0,1.2-0.2,1.7-0.7c0.9-0.9,1-2.5,0-3.4c-5.2-5.2-12.4-8.2-19.8-8.2c-7.5,0-14.5,2.9-19.8,8.2     c-0.9,0.9-0.9,2.5,0,3.4s2.5,0.9,3.4,0c4.4-4.4,10.2-6.8,16.4-6.8c6.1,0,12.1,2.5,16.4,6.8C66.8,26.5,67.4,26.8,68.1,26.8z"/>
                <path d="M38.6,31.1c-0.9,0.9-0.9,2.5,0,3.4c0.5,0.5,1.1,0.7,1.7,0.7c0.6,0,1.2-0.2,1.7-0.7c4.3-4.3,11.7-4.3,16,0     c0.9,0.9,2.5,0.9,3.4,0s0.9-2.5,0-3.4c-3-3-7.1-4.7-11.4-4.7S41.7,28,38.6,31.1z"/>
                <path d="M90,69.3L51.5,39.3c-0.9-0.7-2.1-0.7-3,0L10,69.3c-1.1,0.8-1.2,2.3-0.4,3.4c0.8,1,2.3,1.2,3.4,0.4l7.2-5.6v27.7     c0,1.3,1.1,2.4,2.4,2.4h54.8c1.3,0,2.4-1.1,2.4-2.4V67.4l7.2,5.6c0.4,0.3,1,0.5,1.5,0.5c0.7,0,1.4-0.3,1.9-0.9     C91.2,71.6,91,70.1,90,69.3z M34,75.7c0-1.2,1-2.2,2.2-2.2c1.2,0,2.2,1,2.2,2.2s-1,2.2-2.2,2.2C34.9,77.9,34,76.9,34,75.7z      M47.8,61.3c0-1.2,1-2.2,2.2-2.2s2.2,1,2.2,2.2c0,1.2-1,2.2-2.2,2.2S47.8,62.5,47.8,61.3z M61.7,75.7c0-1.2,1-2.2,2.2-2.2     c1.2,0,2.2,1,2.2,2.2s-1,2.2-2.2,2.2C62.7,77.9,61.7,76.9,61.7,75.7z M75,92.7h-8.7V82.2c2.7-1,4.6-3.5,4.6-6.5c0-3.8-3.1-7-7-7     s-7,3.1-7,7c0,3,1.9,5.5,4.6,6.5v10.5h-9.1V67.8c2.7-1,4.6-3.5,4.6-6.5c0-3.8-3.1-7-7-7s-7,3.1-7,7c0,3,1.9,5.5,4.6,6.5v24.9     h-9.1V82.2c2.7-1,4.6-3.5,4.6-6.5c0-3.8-3.1-7-7-7s-7,3.1-7,7c0,3,1.9,5.5,4.6,6.5v10.5H25v-29l25-19.4l25,19.4V92.7z"/>
            </g>
        </g>
</svg>