<svg xmlns="http://www.w3.org/2000/svg"
     version="1.1" x="0px" y="0px"
     viewBox="0 0 100 100"
     enable-background="new 0 0 100 100"
     xml:space="preserve">
    <g transform="translate(-2,-5),scale(4.5)">
        <path d="M6.25,8.5A3.59027,3.59027,0,0,1,7.84119,5.16772a.75.75,0,0,0-.67536-1.33923A5.05969,5.05969,0,0,0,4.75,8.5a7.88258,7.88258,0,0,0,1.0791,3.83539A6.55263,6.55263,0,0,1,6.75,15.5a3.5753,3.5753,0,0,1-1.588,3.33044.75.75,0,0,0,.67285,1.3407A5.05921,5.05921,0,0,0,8.25,15.5a7.88263,7.88263,0,0,0-1.0791-3.83545A6.55327,6.55327,0,0,1,6.25,8.5Z"/>
        <path d="M17.1709,11.66455A6.55327,6.55327,0,0,1,16.25,8.5a3.59027,3.59027,0,0,1,1.59119-3.33228.75.75,0,0,0-.67591-1.339A5.05986,5.05986,0,0,0,14.75,8.5a7.88258,7.88258,0,0,0,1.0791,3.83539A6.55263,6.55263,0,0,1,16.75,15.5a3.5753,3.5753,0,0,1-1.588,3.33044.75.75,0,0,0,.67285,1.3407A5.05921,5.05921,0,0,0,18.25,15.5,7.88263,7.88263,0,0,0,17.1709,11.66455Z"/>
        <path d="M11.25,8.5a3.59027,3.59027,0,0,1,1.59119-3.33228.75.75,0,0,0-.6756-1.33911A5.05972,5.05972,0,0,0,9.75,8.5a7.88258,7.88258,0,0,0,1.0791,3.83539A6.55263,6.55263,0,0,1,11.75,15.5a3.5753,3.5753,0,0,1-1.588,3.33044.75.75,0,0,0,.67285,1.3407A5.05921,5.05921,0,0,0,13.25,15.5a7.88263,7.88263,0,0,0-1.0791-3.83545A6.55327,6.55327,0,0,1,11.25,8.5Z"/>

    </g>
</svg>