<svg xmlns="http://www.w3.org/2000/svg" version="1.1" x="0px" y="0px"
     viewBox="0 0 34 34" enable-background="new 0 0 34 34" xml:space="preserve">
            <path d="M32.5,16.7V2.3c0-0.1,0.1-0.2,0.1-0.3c0-0.3-0.2-0.5-0.5-0.5h-0.5c0-0.3-0.2-0.5-0.5-0.5H2.8c-0.3,0-0.5,0.2-0.5,0.5H1.7    c-0.3,0-0.5,0.2-0.5,0.5s0.2,0.5,0.5,0.5h0.5c0,0.3,0.2,0.5,0.5,0.5h2.4v1.6H2.8c-0.4,0-0.6,0.5-0.4,0.8l1.1,1.3    c0.1,0.1,0.2,0.2,0.4,0.2h1.3v1H2.8c-0.4,0-0.6,0.5-0.4,0.8L3.4,10c0.1,0.1,0.2,0.2,0.4,0.2h1.3v1H2.8c-0.4,0-0.6,0.5-0.4,0.8    l1.1,1.3c0.1,0.1,0.2,0.2,0.4,0.2h1.3v1H2.8c-0.4,0-0.6,0.5-0.4,0.8l1.1,1.3c0.1,0.1,0.2,0.2,0.4,0.2h1.3v1H2.8    c-0.4,0-0.6,0.5-0.4,0.8l1.1,1.3c0.1,0.1,0.2,0.2,0.4,0.2h1.3v1H2.8c-0.4,0-0.6,0.5-0.4,0.8L3.4,23c0.1,0.1,0.2,0.2,0.4,0.2h1.3v1    H2.8c-0.4,0-0.6,0.5-0.4,0.8l1.1,1.3c0.1,0.1,0.2,0.2,0.4,0.2h1.3v1H2.8c-0.4,0-0.6,0.5-0.4,0.8l1.1,1.3c0.1,0.1,0.2,0.2,0.4,0.2    h1.3v1H2.8c-0.4,0-0.6,0.5-0.4,0.8l1.1,1.3c0.1,0.1,0.2,0.2,0.4,0.2H30c0.1,0,0.3-0.1,0.4-0.2l1.1-1.3c0.3-0.3,0-0.8-0.4-0.8h-2.4    v-1H30c0.1,0,0.3-0.1,0.4-0.2l1.1-1.3c0.3-0.3,0-0.8-0.4-0.8h-2.4v-1H30c0.1,0,0.3-0.1,0.4-0.2l1.1-1.3c0.3-0.3,0-0.8-0.4-0.8    h-2.4v-1H30c0.1,0,0.3-0.1,0.4-0.2l1.1-1.3c0.3-0.3,0-0.8-0.4-0.8h-2.4v-1H30c0.1,0,0.3-0.1,0.4-0.2l1.1-1.3    c0.3-0.3,0-0.8-0.4-0.8h-2.4v-1H30c0.1,0,0.3-0.1,0.4-0.2l1.1-1.3c0.3-0.3,0-0.8-0.4-0.8h-2.4v-1H30c0.1,0,0.3-0.1,0.4-0.2    l1.1-1.3c0.3-0.3,0-0.8-0.4-0.8h-2.4v-1H30c0.1,0,0.3-0.1,0.4-0.2l1.1-1.3c0.3-0.3,0-0.8-0.4-0.8h-2.4v-1H30    c0.1,0,0.3-0.1,0.4-0.2l1.1-1.3c0.3-0.3,0-0.8-0.4-0.8h-2.4V3.1h2.4c0.3,0,0.5-0.2,0.5-0.5H32v14.1c-0.2,0.1-0.2,0.3-0.2,0.4    c0,0.3,0.2,0.5,0.5,0.5c0.3,0,0.5-0.2,0.5-0.5C32.8,17,32.7,16.8,32.5,16.7z M27.6,30.7H6.2v-1h21.4V30.7z M27.6,27.4H6.2v-1h21.4    V27.4z M27.6,24.2H6.2v-1h21.4V24.2z M27.6,20.9H6.2v-1h21.4V20.9z M27.6,17.7H6.2v-1h21.4V17.7z M27.6,14.4H6.2v-1h21.4V14.4z     M27.6,11.2H6.2v-1h21.4V11.2z M27.6,7.9H6.2v-1h21.4V7.9z M27.6,4.7H6.2V3.1h21.4V4.7z"/>
        </svg>