<svg xmlns="http://www.w3.org/2000/svg" xmlns:xlink="http://www.w3.org/1999/xlink" version="1.1" x="0px" y="0px"
     viewBox="0 0 50 50" enable-background="new 0 0 50 50" xml:space="preserve"><g><g><path d="M1,4.5894c0,0.55,0.45,1,1,1h0.5898v-2H2C1.45,3.5894,1,4.0294,1,4.5894z"/><rect
        x="22.7999" y="3.5894" width="5" height="2"/><path
        d="M48.0199,3.5894v2c0.55-0.01,0.9801-0.46,0.9801-1C49,4.0394,48.5699,3.5994,48.0199,3.5894z"/><path
        d="M21.304,2.5906H4.0928c-0.2761,0-0.5,0.2238-0.5,0.5v3.5H21.804v-3.5C21.804,2.8145,21.5801,2.5906,21.304,2.5906z"/><rect
        x="15.5" y="7.5894" width="2.6099" height="39.82"/>
    <rect x="3.5898" y="7.5894" width="2.2001" height="39.82"/>
    <rect
            x="19.6099" y="7.5894" width="2.1901" height="39.82"/>
    <rect x="11.3999" y="7.5894" width="2.6001"
          height="39.82"/>
    <rect x="7.2899" y="7.5894"
          width="2.61"
          height="39.82"/>
    <path
            d="M47.0151,3.0906c0-0.2762-0.2239-0.5-0.5-0.5H29.304c-0.2761,0-0.5,0.2238-0.5,0.5v3.5h18.2112V3.0906z"/><rect
            x="32.5" y="7.5894" width="2.6099" height="39.82"/><rect x="40.71" y="7.5894" width="2.61" height="39.82"/><rect
            x="28.7999" y="7.5894" width="2.2001" height="39.82"/><rect x="36.6099" y="7.5894" width="2.6001"
                                                                        height="39.82"/><rect x="44.8199" y="7.5894"
                                                                                              width="2.2"
                                                                                              height="39.82"/></g></g>
</svg>