<svg xmlns="http://www.w3.org/2000/svg"
     version="1.1" x="0px" y="0px"
     viewBox="0 0 100 100"
     enable-background="new 0 0 100 100"
     xml:space="preserve">
    <path d="M87.957,31.02H12.039c-1.015,0-1.836-0.821-1.836-1.836v-10.41c0-1.015,0.821-1.836,1.836-1.836h75.919  c1.015,0,1.836,0.821,1.836,1.836v10.41C89.793,30.199,88.972,31.02,87.957,31.02z M13.875,27.348h72.247v-6.738H13.875V27.348z"/>
    <path d="M73.876,41.426H12.039c-1.015,0-1.836-0.821-1.836-1.836c0-1.015,0.821-1.836,1.836-1.836h61.837  c1.015,0,1.836,0.821,1.836,1.836C75.712,40.605,74.891,41.426,73.876,41.426z"/>
    <path d="M73.876,51.836H12.039c-1.015,0-1.836-0.821-1.836-1.836s0.821-1.836,1.836-1.836h61.837c1.015,0,1.836,0.821,1.836,1.836  S74.891,51.836,73.876,51.836z"/>
    <path d="M73.876,62.246H12.039c-1.015,0-1.836-0.821-1.836-1.836c0-1.015,0.821-1.836,1.836-1.836h61.837  c1.015,0,1.836,0.821,1.836,1.836C75.712,61.424,74.891,62.246,73.876,62.246z"/>
    <path d="M73.876,72.651H12.039c-1.015,0-1.836-0.821-1.836-1.836c0-1.015,0.821-1.836,1.836-1.836h61.837  c1.015,0,1.836,0.821,1.836,1.836C75.712,71.83,74.891,72.651,73.876,72.651z"/>
    <path d="M73.876,83.061H12.039c-1.015,0-1.836-0.821-1.836-1.836c0-1.015,0.821-1.836,1.836-1.836h61.837  c1.015,0,1.836,0.821,1.836,1.836C75.712,82.24,74.891,83.061,73.876,83.061z"/>
    <path d="M87.957,63.16c-1.015,0-1.836-0.821-1.836-1.836v-32.14c0-1.015,0.821-1.836,1.836-1.836c1.015,0,1.836,0.821,1.836,1.836  v32.14C89.793,62.339,88.972,63.16,87.957,63.16z"/>
    <path d="M12.039,25.814H6.836C5.821,25.814,5,24.993,5,23.978s0.821-1.836,1.836-1.836h5.203c1.015,0,1.836,0.821,1.836,1.836  S13.054,25.814,12.039,25.814z"/>
    <path d="M93.164,25.814h-5.207c-1.015,0-1.836-0.821-1.836-1.836s0.821-1.836,1.836-1.836h5.207c1.015,0,1.836,0.821,1.836,1.836  S94.179,25.814,93.164,25.814z"/>
    <path d="M87.957,73.042c-3.589,0-6.512-2.922-6.512-6.512c0-3.593,2.922-6.515,6.512-6.515s6.512,2.922,6.512,6.515  C94.469,70.12,91.547,73.042,87.957,73.042z M87.957,63.687c-1.567,0-2.84,1.277-2.84,2.844s1.273,2.84,2.84,2.84  s2.84-1.273,2.84-2.84S89.524,63.687,87.957,63.687z"/>
</svg>
